<?xml version="1.0" encoding="UTF-8" standalone="no"?>
<svg
   height="260"
   preserveAspectRatio="xMidYMid"
   viewBox="0 0 260 260"
   width="260"
   version="1.1"
   id="svg11"
   sodipodi:docname="gunicorn.svg"
   inkscape:version="1.1.2 (0a00cf5339, 2022-02-04)"
   inkscape:export-filename="/home/tobias/git/jelastic-gunicorn-jps/images/gunicorn.png"
   inkscape:export-xdpi="94.523079"
   inkscape:export-ydpi="94.523079"
   xmlns:inkscape="http://www.inkscape.org/namespaces/inkscape"
   xmlns:sodipodi="http://sodipodi.sourceforge.net/DTD/sodipodi-0.dtd"
   xmlns="http://www.w3.org/2000/svg"
   xmlns:svg="http://www.w3.org/2000/svg">
  <defs
     id="defs15" />
  <sodipodi:namedview
     id="namedview13"
     pagecolor="#ffffff"
     bordercolor="#666666"
     borderopacity="1.0"
     inkscape:pageshadow="2"
     inkscape:pageopacity="0.0"
     inkscape:pagecheckerboard="0"
     showgrid="false"
     height="256px"
     inkscape:zoom="1.351601"
     inkscape:cx="77.685651"
     inkscape:cy="157.59089"
     inkscape:window-width="1600"
     inkscape:window-height="848"
     inkscape:window-x="0"
     inkscape:window-y="0"
     inkscape:window-maximized="1"
     inkscape:current-layer="svg11" />
  <linearGradient
     id="a"
     x1="50.15151"
     x2="5.5591396"
     y1="519.73064"
     y2="550.95486"
     gradientTransform="scale(3.7606987,0.26590804)"
     gradientUnits="userSpaceOnUse">
    <stop
       offset="0"
       stop-color="#959595"
       id="stop2" />
    <stop
       offset="1"
       stop-color="#ccc"
       id="stop4" />
  </linearGradient>
  <g
     id="g834"
     transform="translate(2.0729987,52.225651)">
    <path
       d="m 255.854,146.50332 c 0,4.99561 -57.27487,9.04535 -127.927,9.04535 C 57.27487,155.54867 2.51e-6,151.49893 2.51e-6,146.50332 1.15e-6,143.27173 24.382749,140.28562 63.9635,138.66983 c 39.58075,-1.6158 88.34625,-1.6158 127.927,0 39.58075,1.61579 63.9635,4.6019 63.9635,7.83349 z"
       fill="url(#a)"
       opacity="0.263538"
       id="path7"
       style="fill:url(#a)" />
    <path
       d="m 110.63868,150.14565 c -2.4766,-0.78836 -2.48539,-1.13648 -0.20371,-8.06418 2.27862,-6.91837 1.23436,-13.34323 -2.98958,-18.39345 -5.74386,-6.86749 -8.509753,-12.72751 -9.391385,-19.89721 -0.756893,-6.155355 -0.996812,-6.643343 -3.502869,-7.124488 -1.680803,-0.322705 -4.002926,0.31641 -9.537107,2.624914 -8.051633,3.358604 -9.969333,4.833374 -11.869266,9.127744 -0.998083,2.25594 -1.118047,3.60729 -0.551921,6.21683 0.691296,3.18642 3.524446,8.31571 4.596961,8.32258 0.279878,0.002 1.826146,1.06086 3.436136,2.35347 2.671533,2.14491 2.85491,2.51758 2.09894,4.26601 -1.642567,3.79905 -5.545162,8.4051 -7.121438,8.4051 -0.884394,0 -4.495919,-2.52966 -8.47132,-5.93368 -7.808462,-6.68611 -8.135737,-7.35642 -8.942243,-18.31579 -0.962291,-13.07632 2.253262,-19.179005 16.57471,-31.456601 l 8.982405,-7.7005 0.57369,-4.670941 c 0.591418,-4.815187 -0.242362,-16.280868 -1.644184,-22.609785 -0.82816,-3.738948 -3.561191,-7.30009 -6.154769,-8.019652 -2.825672,-0.783976 -4.482146,0.833568 -6.631767,6.475953 -2.31934,6.087862 -4.535964,8.211681 -8.570495,8.211681 -2.512919,0 -4.857975,-1.607497 -6.477252,-4.440051 -1.160296,-2.029656 -1.833817,-14.223023 -1.140191,-20.64152 0.333656,-3.087524 0.352779,-6.213573 0.04254,-6.946782 C 53.239694,20.742275 48.892121,18.161535 38.642315,12.970577 36.779019,12.026919 34.606773,10.756341 33.815107,10.147061 33.023451,9.5377901 30.969157,8.4175976 29.250011,7.6577588 25.35602,5.9366785 15.202906,2.887e-5 16.153417,2.887e-5 c 1.798227,0 9.418856,2.34547973 13.475725,4.14756573 2.47653,1.1001071 4.847157,2.000178 5.268066,2.000178 0.420918,0 5.195433,1.5369432 10.610045,3.4154346 5.414621,1.8784718 10.363525,3.4154158 10.997567,3.4154158 1.505983,0 1.742138,-1.302896 1.259559,-6.9490723 -0.219207,-2.5648409 -0.209535,-4.6633576 0.02156,-4.6633576 0.231025,0 1.228819,0.4951868 2.217287,1.1004054 3.019905,1.8490226 9.515722,2.9814761 17.150585,2.9899838 7.300379,0.00866 16.829469,1.456563 20.471454,3.1116415 5.224555,2.3742752 11.284835,9.7899312 18.972545,23.2157452 5.34463,9.333885 11.08739,13.286198 19.31756,13.294859 3.32709,0.0038 12.20379,-1.367906 24.22436,-3.742518 9.91151,-1.957976 22.99591,-2.398056 28.07478,-0.944264 6.19588,1.773522 14.38835,6.514863 21.16197,12.247357 6.33976,5.365327 7.31618,6.556507 11.21061,13.676223 4.64772,8.496871 9.77733,20.572824 14.33888,33.756194 0.64998,1.87847 2.02281,5.03831 3.05073,7.02184 2.74271,5.29241 2.606,5.61521 -2.37803,5.61521 -5.40957,0 -7.94656,-0.85304 -11.49271,-3.86433 -3.40114,-2.88816 -4.28959,-4.65512 -9.61304,-19.118734 -2.72678,-7.408505 -5.38115,-11.854225 -7.07774,-11.854225 -1.16245,0 -3.51534,7.939022 -3.51534,11.861424 0,2.785867 1.74581,6.549365 6.25936,13.493585 7.33229,11.28093 11.18934,27.22808 9.64543,39.87951 l -0.66688,5.46467 -4.88659,0.20342 c -7.69333,0.32027 -7.6163,0.4272 -7.6163,-10.57377 0,-11.71173 -0.79762,-14.24808 -5.96597,-18.9714 -2.14674,-1.9619 -6.96308,-7.53594 -10.70298,-12.38677 -3.73993,-4.85083 -7.3215,-8.819696 -7.95905,-8.819696 -1.46503,0 -2.19557,3.989056 -2.27345,12.413886 -0.0512,5.54822 -0.26971,6.48733 -1.90664,8.197 -4.43769,4.63493 -7.55274,13.07447 -9.47313,25.66545 -0.42506,2.78692 -0.78949,3.30828 -2.59599,3.71391 -2.65626,0.59643 -10.01715,0.69407 -10.65148,0.14129 -0.54705,-0.47672 0.41159,-8.04479 2.58619,-20.41737 0.82541,-4.69621 1.72633,-10.99766 2.00207,-14.00322 0.49088,-5.35053 -0.60619,-15.374989 -1.90459,-17.403087 -0.53986,-0.84326 -3.28883,-1.025982 -16.1465,-1.073198 -8.52272,-0.03128 -17.86946,-0.311665 -20.77051,-0.623033 l -5.27468,-0.566135 v 2.340706 c 0,2.506558 0.64249,4.715867 4.93878,16.983197 1.51314,4.32051 3.70578,10.90712 4.87254,14.63692 l 2.12138,6.78147 -1.79014,5.51405 c -0.98459,3.03272 -2.44583,6.66675 -3.24722,8.07562 -1.41351,2.48497 -1.57926,2.55994 -5.5437,2.50762 -2.24765,-0.0296 -5.08761,-0.37256 -6.31102,-0.76198 z"
       fill="#499848"
       id="path9" />
  </g>
</svg>
